<?xml version="1.0" encoding="utf-8"?>
<!-- Generator: Adobe Illustrator 20.0.0, SVG Export Plug-In . SVG Version: 6.00 Build 0)  -->
<svg version="1.1" id="Layer_1" xmlns="http://www.w3.org/2000/svg" xmlns:xlink="http://www.w3.org/1999/xlink" x="0px" y="0px"
	 viewBox="0 0 512 512" style="enable-background:new 0 0 512 512;" xml:space="preserve">
<style type="text/css">
	.st0{fill:#020201;}
</style>
<path class="st0" d="M461.5,222H352.1L274.4,42.6c-3.2-7.3-10.4-12.1-18.4-12.1c0,0,0,0,0,0c-8,0-15.2,4.7-18.4,12.1L160,222H50.5
	c-11,0-20,9-20,20l40,207c0,11,9,20,20,20h331c11,0,20-9,20-20l40-207C481.5,231,472.5,222,461.5,222z M256,100.9L308.5,222H203.6
	L256,100.9z M138,403.5L138,403.5c0,5.8-4.7,10.5-10.5,10.5s-10.5-4.7-10.5-10.5v-117c0-5.8,4.7-10.5,10.5-10.5h0
	c5.8,0,10.5,4.7,10.5,10.5V403.5z M204,403.5L204,403.5c0,5.8-4.7,10.5-10.5,10.5s-10.5-4.7-10.5-10.5v-117
	c0-5.8,4.7-10.5,10.5-10.5h0c5.8,0,10.5,4.7,10.5,10.5V403.5z M266,403.5L266,403.5c0,5.8-4.7,10.5-10.5,10.5s-10.5-4.7-10.5-10.5
	v-117c0-5.8,4.7-10.5,10.5-10.5h0c5.8,0,10.5,4.7,10.5,10.5V403.5z M331,403.5c0,5.8-4.7,10.5-10.5,10.5s-10.5-4.7-10.5-10.5v-117
	c0-5.8,4.7-10.5,10.5-10.5s10.5,4.7,10.5,10.5V403.5z M396,403.5c0,5.8-4.7,10.5-10.5,10.5s-10.5-4.7-10.5-10.5v-117
	c0-5.8,4.7-10.5,10.5-10.5s10.5,4.7,10.5,10.5V403.5z"/>
</svg>
